<svg viewBox="0 0 100 100" fill="none" xmlns="http://www.w3.org/2000/svg"><defs><clipPath id="clip"><rect x="10" y="10" width="80" height="80"/></clipPath></defs><g clip-path="url(#clip)"><path d="M20 17.32 V0 M10 5.77 L20 11.55 L30 5.77" stroke="white" stroke-width="2.5" stroke-linecap="round" stroke-linejoin="round" /><path d="M20 34.64 V17.32 M10 23.09 L20 28.87 L30 23.09" stroke="white" stroke-width="2.5" stroke-linecap="round" stroke-linejoin="round" /><path d="M40 17.32 V0 M30 5.77 L40 11.55 L50 5.77" stroke="white" stroke-width="2.5" stroke-linecap="round" stroke-linejoin="round" /><path d="M20 34.64 V17.32 M10 23.09 L20 28.87 L30 23.09" stroke="white" stroke-width="2.5" stroke-linecap="round" stroke-linejoin="round" /><path d="M40 34.64 V17.32 M30 23.09 L40 28.87 L50 23.09" stroke="white" stroke-width="2.5" stroke-linecap="round" stroke-linejoin="round" /><path d="M60 17.32 V0 M50 5.77 L60 11.55 L70 5.77" stroke="white" stroke-width="2.5" stroke-linecap="round" stroke-linejoin="round" /><path d="M20 34.64 V17.32 M10 23.09 L20 28.87 L30 23.09" stroke="white" stroke-width="2.5" stroke-linecap="round" stroke-linejoin="round" /><path d="M60 34.64 V17.32 M50 23.09 L60 28.87 L70 23.09" stroke="white" stroke-width="2.5" stroke-linecap="round" stroke-linejoin="round" /><path d="M80 17.32 V0 M70 5.77 L80 11.55 L90 5.77" stroke="white" stroke-width="2.5" stroke-linecap="round" stroke-linejoin="round" /><path d="M20 34.64 V17.32 M10 23.09 L20 28.87 L30 23.09" stroke="white" stroke-width="2.5" stroke-linecap="round" stroke-linejoin="round" /><path d="M80 34.64 V17.32 M70 23.09 L80 28.87 L90 23.09" stroke="white" stroke-width="2.5" stroke-linecap="round" stroke-linejoin="round" /><path d="M100 17.32 V0 M90 5.77 L100 11.55 L110 5.77" stroke="white" stroke-width="2.5" stroke-linecap="round" stroke-linejoin="round" /><path d="M20 34.64 V17.32 M10 23.09 L20 28.87 L30 23.09" stroke="white" stroke-width="2.5" stroke-linecap="round" stroke-linejoin="round" /><path d="M100 34.64 V17.32 M90 23.09 L100 28.87 L110 23.09" stroke="white" stroke-width="2.5" stroke-linecap="round" stroke-linejoin="round" /><path d="M20 51.96 V34.64 M10 40.41 L20 46.19 L30 40.41" stroke="white" stroke-width="2.5" stroke-linecap="round" stroke-linejoin="round" /><path d="M20 69.28 V51.96 M10 57.73 L20 63.51 L30 57.73" stroke="white" stroke-width="2.5" stroke-linecap="round" stroke-linejoin="round" /><path d="M40 51.96 V34.64 M30 40.41 L40 46.19 L50 40.41" stroke="white" stroke-width="2.5" stroke-linecap="round" stroke-linejoin="round" /><path d="M20 69.28 V51.96 M10 57.73 L20 63.51 L30 57.732" stroke="white" stroke-width="2.5" stroke-linecap="round" stroke-linejoin="round" /><path d="M40 69.28 V51.96 M30 57.73 L40 63.51 L50 57.73" stroke="white" stroke-width="2.5" stroke-linecap="round" stroke-linejoin="round" /><path d="M60 51.96 V34.64 M50 40.41 L60 46.19 L70 40.41" stroke="white" stroke-width="2.5" stroke-linecap="round" stroke-linejoin="round" /><path d="M20 69.28 V51.96 M10 57.73 L20 63.51 L30 57.732" stroke="white" stroke-width="2.5" stroke-linecap="round" stroke-linejoin="round" /><path d="M60 69.28 V51.96 M50 57.73 L60 63.51 L70 57.73" stroke="white" stroke-width="2.5" stroke-linecap="round" stroke-linejoin="round" /><path d="M80 51.96 V34.64 M70 40.41 L80 46.19 L90 40.41" stroke="white" stroke-width="2.5" stroke-linecap="round" stroke-linejoin="round" /><path d="M20 69.28 V51.96 M10 57.73 L20 63.51 L30 5.773" stroke="white" stroke-width="2.5" stroke-linecap="round" stroke-linejoin="round" /><path d="M80 69.28 V51.96 M70 57.73 L80 63.51 L90 57.73" stroke="white" stroke-width="2.5" stroke-linecap="round" stroke-linejoin="round" /><path d="M100 51.96 V34.64 M90 40.41 L100 46.19 L110 40.41" stroke="white" stroke-width="2.5" stroke-linecap="round" stroke-linejoin="round" /><path d="M20 69.28 V51.96 M10 57.73 L20 63.51 L30 57.73" stroke="white" stroke-width="2.5" stroke-linecap="round" stroke-linejoin="round" /><path d="M100 69.28 V51.96 M90 57.73 L100 63.51 L110 57.73" stroke="white" stroke-width="2.5" stroke-linecap="round" stroke-linejoin="round" /><path d="M20 86.6 V69.28 M10 75.05 L20 80.82 L30 75.05" stroke="white" stroke-width="2.5" stroke-linecap="round" stroke-linejoin="round" /><path d="M20 103.92 V86.6 M10 92.37 L20 98.15 L30 92.37" stroke="white" stroke-width="2.5" stroke-linecap="round" stroke-linejoin="round" /><path d="M40 86.6 V69.28 M30 75.05 L40 80.82 L50 75.05" stroke="white" stroke-width="2.5" stroke-linecap="round" stroke-linejoin="round" /><path d="M20 103.92 V86.6 M10 92.37 L20 98.15 L30 92.37" stroke="white" stroke-width="2.5" stroke-linecap="round" stroke-linejoin="round" /><path d="M40 103.92 V86.6 M30 92.37 L40 98.15 L50 92.37" stroke="white" stroke-width="2.5" stroke-linecap="round" stroke-linejoin="round" /><path d="M60 86.6 V69.28 M50 75.05 L60 80.82 L70 75.05" stroke="white" stroke-width="2.5" stroke-linecap="round" stroke-linejoin="round" /><path d="M20 103.92 V86.6 M10 92.37 L20 98.15 L30 92.37" stroke="white" stroke-width="2.5" stroke-linecap="round" stroke-linejoin="round" /><path d="M60 103.92 V86.6 M50 92.37 L60 98.15 L70 92.37" stroke="white" stroke-width="2.5" stroke-linecap="round" stroke-linejoin="round" /><path d="M80 86.6 V69.28 M70 75.05 L80 80.82 L90 75.05" stroke="white" stroke-width="2.5" stroke-linecap="round" stroke-linejoin="round" /><path d="M20 103.92 V86.6 M10 92.37 L20 98.15 L30 92.37" stroke="white" stroke-width="2.5" stroke-linecap="round" stroke-linejoin="round" /><path d="M80 103.92 V86.6 M70 92.37 L80 98.15 L90 92.37" stroke="white" stroke-width="2.5" stroke-linecap="round" stroke-linejoin="round" /><path d="M100 86.6 V69.28 M90 75.05 L100 80.82 L110 75.05" stroke="white" stroke-width="2.5" stroke-linecap="round" stroke-linejoin="round" /><path d="M20 103.92 V86.6 M10 92.37 L20 98.15 L30 92.37" stroke="white" stroke-width="2.5" stroke-linecap="round" stroke-linejoin="round" /><path d="M100 103.92 V86.6 M90 92.37 L100 98.15 L110 92.37" stroke="white" stroke-width="2.5" stroke-linecap="round" stroke-linejoin="round" /></g><path d="M10 0 V90 M10 10 H90 V90" stroke="#B4F156" strokeWidth="8" stroke-linecap="round" stroke-linejoin="round" /></svg>
